<?xml version="1.0" encoding="UTF-8"?>
<svg width="36px" height="28px" viewBox="0 0 36 28" version="1.1" xmlns="http://www.w3.org/2000/svg" xmlns:xlink="http://www.w3.org/1999/xlink">
    <title>01</title>
    <g id="Page-1" stroke="none" stroke-width="1" fill="none" fill-rule="evenodd">
        <g id="Биология" transform="translate(-245.000000, -2052.000000)" fill="#126154" fill-rule="nonzero">
            <g id="01" transform="translate(245.000000, 2052.120000)">
                <path d="M3.54666667,23.744 C1.18222222,21.1555556 0,17.8453333 0,13.8133333 C0,9.78133333 1.18222222,6.47111111 3.54666667,3.88266667 C5.91111111,1.29422222 8.77333333,0 12.1333333,0 C15.4933333,0 18.3555556,1.29422222 20.72,3.88266667 C23.0844444,6.47111111 24.2666667,9.78133333 24.2666667,13.8133333 C24.2666667,17.8453333 23.0844444,21.1555556 20.72,23.744 C18.3555556,26.3324444 15.4933333,27.6266667 12.1333333,27.6266667 C8.77333333,27.6266667 5.91111111,26.3324444 3.54666667,23.744 Z M6.608,6.64533333 C5.18933333,8.33777778 4.48,10.7271111 4.48,13.8133333 C4.48,16.8995556 5.19555556,19.2888889 6.62666667,20.9813333 C8.05777778,22.6737778 9.89333333,23.52 12.1333333,23.52 C14.3733333,23.52 16.2088889,22.6737778 17.64,20.9813333 C19.0711111,19.2888889 19.7866667,16.8995556 19.7866667,13.8133333 C19.7866667,10.7271111 19.0711111,8.33777778 17.64,6.64533333 C16.2088889,4.95288889 14.3733333,4.10666667 12.1333333,4.10666667 C9.89333333,4.10666667 8.05155556,4.95288889 6.608,6.64533333 Z" id="Shape"></path>
                <polygon id="Path" points="26.88 9.33333333 26.88 4.48 31.7333333 0.746666667 35.6533333 0.746666667 35.6533333 26.88 31.36 26.88 31.36 5.97333333"></polygon>
            </g>
        </g>
    </g>
</svg>