<?xml version="1.0" encoding="UTF-8"?>
<svg width="46px" height="28px" viewBox="0 0 46 28" version="1.1" xmlns="http://www.w3.org/2000/svg" xmlns:xlink="http://www.w3.org/1999/xlink">
    <title>02</title>
    <g id="Page-1" stroke="none" stroke-width="1" fill="none" fill-rule="evenodd">
        <g id="Биология" transform="translate(-245.000000, -2225.000000)" fill="#126154" fill-rule="nonzero">
            <g id="02" transform="translate(245.000000, 2225.120000)">
                <path d="M3.54666667,23.744 C1.18222222,21.1555556 0,17.8453333 0,13.8133333 C0,9.78133333 1.18222222,6.47111111 3.54666667,3.88266667 C5.91111111,1.29422222 8.77333333,0 12.1333333,0 C15.4933333,0 18.3555556,1.29422222 20.72,3.88266667 C23.0844444,6.47111111 24.2666667,9.78133333 24.2666667,13.8133333 C24.2666667,17.8453333 23.0844444,21.1555556 20.72,23.744 C18.3555556,26.3324444 15.4933333,27.6266667 12.1333333,27.6266667 C8.77333333,27.6266667 5.91111111,26.3324444 3.54666667,23.744 Z M6.608,6.64533333 C5.18933333,8.33777778 4.48,10.7271111 4.48,13.8133333 C4.48,16.8995556 5.19555556,19.2888889 6.62666667,20.9813333 C8.05777778,22.6737778 9.89333333,23.52 12.1333333,23.52 C14.3733333,23.52 16.2088889,22.6737778 17.64,20.9813333 C19.0711111,19.2888889 19.7866667,16.8995556 19.7866667,13.8133333 C19.7866667,10.7271111 19.0711111,8.33777778 17.64,6.64533333 C16.2088889,4.95288889 14.3733333,4.10666667 12.1333333,4.10666667 C9.89333333,4.10666667 8.05155556,4.95288889 6.608,6.64533333 Z" id="Shape"></path>
                <path d="M27.0666667,26.88 L27.0666667,22.7733333 L35.9893333,16.464 C37.9306667,15.0702222 39.3244444,13.776 40.1706667,12.5813333 C41.0168889,11.3866667 41.44,10.1173333 41.44,8.77333333 C41.44,7.35466667 41.0044444,6.22222222 40.1333333,5.376 C39.2622222,4.52977778 38.08,4.10666667 36.5866667,4.10666667 C34.7448889,4.10666667 33.3635556,4.85333333 32.4426667,6.34666667 C32.0444444,6.99377778 31.7457778,7.74044444 31.5466667,8.58666667 L27.0666667,8.58666667 C27.2906667,6.99377778 27.776,5.56266667 28.5226667,4.29333333 C30.2897778,1.43111111 32.9777778,0 36.5866667,0 C39.3493333,0 41.5955556,0.815111111 43.3253333,2.44533333 C45.0551111,4.07555556 45.92,6.12266667 45.92,8.58666667 C45.92,10.7271111 45.3724444,12.6497778 44.2773333,14.3546667 C43.1822222,16.0595556 41.4275556,17.7457778 39.0133333,19.4133333 L35.28,22.0266667 L33.6,22.7733333 L33.6,22.96 L35.84,22.7733333 L45.92,22.7733333 L45.92,26.88 L27.0666667,26.88 Z" id="Path"></path>
            </g>
        </g>
    </g>
</svg>