<?xml version="1.0" encoding="UTF-8"?>
<svg width="48px" height="28px" viewBox="0 0 48 28" version="1.1" xmlns="http://www.w3.org/2000/svg" xmlns:xlink="http://www.w3.org/1999/xlink">
    <title>03</title>
    <g id="Page-1" stroke="none" stroke-width="1" fill="none" fill-rule="evenodd">
        <g id="Биология" transform="translate(-245.000000, -2425.000000)" fill="#126154" fill-rule="nonzero">
            <g id="03" transform="translate(245.000000, 2425.120000)">
                <path d="M3.54666667,23.744 C1.18222222,21.1555556 0,17.8453333 0,13.8133333 C0,9.78133333 1.18222222,6.47111111 3.54666667,3.88266667 C5.91111111,1.29422222 8.77333333,0 12.1333333,0 C15.4933333,0 18.3555556,1.29422222 20.72,3.88266667 C23.0844444,6.47111111 24.2666667,9.78133333 24.2666667,13.8133333 C24.2666667,17.8453333 23.0844444,21.1555556 20.72,23.744 C18.3555556,26.3324444 15.4933333,27.6266667 12.1333333,27.6266667 C8.77333333,27.6266667 5.91111111,26.3324444 3.54666667,23.744 Z M6.608,6.64533333 C5.18933333,8.33777778 4.48,10.7271111 4.48,13.8133333 C4.48,16.8995556 5.19555556,19.2888889 6.62666667,20.9813333 C8.05777778,22.6737778 9.89333333,23.52 12.1333333,23.52 C14.3733333,23.52 16.2088889,22.6737778 17.64,20.9813333 C19.0711111,19.2888889 19.7866667,16.8995556 19.7866667,13.8133333 C19.7866667,10.7271111 19.0711111,8.33777778 17.64,6.64533333 C16.2088889,4.95288889 14.3733333,4.10666667 12.1333333,4.10666667 C9.89333333,4.10666667 8.05155556,4.95288889 6.608,6.64533333 Z" id="Shape"></path>
                <path d="M27.0666667,19.4133333 L31.5466667,19.4133333 C31.7208889,20.1848889 32.0568889,20.8693333 32.5546667,21.4666667 C33.6746667,22.8355556 35.2675556,23.52 37.3333333,23.52 C39.0506667,23.52 40.4133333,23.0906667 41.4213333,22.232 C42.4293333,21.3733333 42.9333333,20.3093333 42.9333333,19.04 C42.9333333,17.5964444 42.4791111,16.4577778 41.5706667,15.624 C40.6622222,14.7902222 39.3742222,14.3733333 37.7066667,14.3733333 L31.36,14.3733333 L31.36,10.64 L39.2,5.04 L39.2,4.85333333 L28.3733333,4.85333333 L28.3733333,0.746666667 L45.5466667,0.746666667 L45.5466667,4.816 L38.8266667,9.70666667 L36.96,10.4533333 L36.96,10.64 L37.5573333,10.5653333 C38.3786667,10.4906667 38.864,10.4533333 39.0133333,10.4533333 C41.3528889,10.4533333 43.3066667,11.2622222 44.8746667,12.88 C46.4426667,14.4977778 47.2266667,16.5511111 47.2266667,19.04 C47.2266667,21.4293333 46.3057778,23.4577778 44.464,25.1253333 C42.6222222,26.7928889 40.2453333,27.6266667 37.3333333,27.6266667 C33.4755556,27.6266667 30.6257778,26.2577778 28.784,23.52 C27.9875556,22.3502222 27.4151111,20.9813333 27.0666667,19.4133333 Z" id="Path"></path>
            </g>
        </g>
    </g>
</svg>