<?xml version="1.0" encoding="UTF-8"?>
<svg width="52px" height="42px" viewBox="0 0 52 42" version="1.1" xmlns="http://www.w3.org/2000/svg" xmlns:xlink="http://www.w3.org/1999/xlink">
    <title>accumulator-svgrepo-com</title>
    <g id="Page-1" stroke="none" stroke-width="1" fill="none" fill-rule="evenodd" stroke-linecap="round">
        <g id="Альтернативная-энергетика" transform="translate(-243.000000, -3155.000000)" stroke="#166155" stroke-width="3">
            <g id="accumulator-svgrepo-com" transform="translate(245.000000, 3157.000000)">
                <path d="M19.2,38 L14.4,38 C7.611768,38 4.217664,38 2.108832,35.9130875 C0,33.826175 0,30.46745 0,23.75 L0,18.9408625 C0,14.557325 0,12.3657463 0.941256,10.7278275 C1.581792,9.61321625 2.514408,8.690315 3.640752,8.05645125 C5.295912,7.125 7.51068,7.125 11.940192,7.125 L12.611136,7.125 C12.906192,7.125 13.05372,7.125 13.189824,7.1095625 C13.899984,7.02907375 14.53692,6.63952625 14.927256,6.04696375 C15.002064,5.93339125 15.068064,5.80279 15.199992,5.54165875 C15.463896,5.0193725 15.595848,4.7582175 15.745488,4.5310725 C16.52616,3.3459475 17.800032,2.5668525 19.2204,2.40585125 C19.49256,2.375 19.78752,2.375 20.37768,2.375 L27.62232,2.375 C28.21248,2.375 28.50744,2.375 28.7796,2.40585125 C30.19992,2.5668525 31.47384,3.3459475 32.25456,4.5310725 C32.40408,4.75819375 32.53608,5.01944375 32.80008,5.54165875 C32.93184,5.80281375 32.99784,5.93339125 33.07272,6.04696375 C33.4632,6.63952625 34.09992,7.02907375 34.81008,7.1095625 C34.9464,7.125 35.09376,7.125 35.38896,7.125 L36.05976,7.125 C40.48944,7.125 42.70416,7.125 44.3592,8.05645125 C45.48552,8.690315 46.41816,9.61321625 47.05872,10.7278275 C48,12.3657463 48,14.557325 48,18.9408625 L48,23.75 C48,30.46745 48,33.826175 45.89112,35.9130875 C43.78224,38 40.38816,38 33.6,38 L28.8,38" id="Path"></path>
                <path d="M12,7.125 L12,4.75 C12,2.51082625 12,1.39125125 11.297064,0.69561375 C10.594104,0 9.462744,0 7.2,0 M2.4,8.3125 L2.4,4.75" id="Shape"></path>
                <path d="M45.6,4.75 L45.6,9.5 M36,7.125 L36,4.75 C36,2.51082625 36,1.39125125 36.70296,0.69561375 C37.40592,0 38.53728,0 40.8,0" id="Shape"></path>
                <line x1="16.8" y1="22.5625" x2="9.6" y2="22.5625" id="Path"></line>
                <path d="M38.4,22.5625 L34.8,22.5625 M34.8,22.5625 L31.2,22.5625 M34.8,22.5625 L34.8,19 M34.8,22.5625 L34.8,26.125" id="Shape"></path>
            </g>
        </g>
    </g>
</svg>