<?xml version="1.0" encoding="UTF-8"?>
<svg width="46px" height="46px" viewBox="0 0 46 46" version="1.1" xmlns="http://www.w3.org/2000/svg" xmlns:xlink="http://www.w3.org/1999/xlink">
    <title>physics-svgrepo-com</title>
    <g id="Page-1" stroke="none" stroke-width="1" fill="none" fill-rule="evenodd">
        <g id="Вперед-к-открытиям" transform="translate(-245.000000, -1134.000000)" fill="#126154" fill-rule="nonzero">
            <g id="physics-svgrepo-com" transform="translate(245.000000, 1134.000000)">
                <path d="M23.5,18 C21.0145644,18 19,20.015455 19,22.4995998 C19,24.9841003 21.0158093,27 23.5,27 C25.9847242,27 28,24.9853454 28,22.4995998 C28,20.0158997 25.9850799,18 23.5,18 Z" id="Path"></path>
                <path d="M23.0269352,3.98943667 C20.9033009,2.7801602 18.7769713,1.81529093 16.7029307,1.13319718 C15.5631742,0.757960258 14.3327654,1.41147993 14.0157072,2.58526344 C13.722188,3.67179717 14.3736443,4.79103834 15.4417954,5.14524906 C16.589548,5.52578746 17.7708123,6.01657866 18.9674398,6.6036052 C14.3162342,9.94632282 9.99250867,14.271162 6.65104374,18.9226262 C4.29219877,14.0617086 3.05307518,8.46873758 5.78557988,5.73586982 C6.60657113,4.91476948 6.60657113,3.58346913 5.78557988,2.76236879 C4.96467847,1.94126846 3.63346515,1.94126846 2.8124739,2.76236879 C-2.23485238,7.810186 0.344828272,16.4528556 4.04180452,22.9757421 C-3.96928399,37.0352658 0.998440808,45.9621486 10.2685084,45.9621486 C19.696521,45.9621486 31.9431086,37.3989113 39.3971665,27.0355971 C39.7538458,27.7688187 40.0812361,28.5089592 40.3726889,29.253862 C44.1448643,38.8948271 40.3526537,44.1261294 30.4255596,40.7476493 C29.6669198,40.4894043 29.3736702,40.2748292 28.9849167,40.5637149 C28.0909724,41.2281071 27.1886727,41.8545802 26.281701,42.4410676 C25.8155023,42.7424433 25.8735413,43.4428675 26.3806189,43.6690341 C43.6155055,51.3542924 51.2347859,38.8988706 42.0508784,22.9087098 C52.3687025,4.7075625 41.2227895,-6.37828045 23.0269352,3.98943667 Z M23.0009704,37.0278078 C15.459854,32.1004869 10.8774686,25.6786879 10.8774686,25.6786879 C10.5753244,25.2839524 9.96825089,25.3159409 9.71767696,25.7454506 C9.1718768,26.6803081 8.68420548,27.6128294 8.25879581,28.536455 C8.14837797,28.7761897 8.1846748,29.0587855 8.3501668,29.2643751 C8.3501668,29.2643751 12.9913998,35.1033707 18.8837056,39.3296383 C-4.29460784,50.4725395 2.17898634,22.5490179 23.0148063,8.92151988 C28.5696594,12.5515957 33.6579543,17.7065207 37.1398449,23.0646991 C33.4427788,28.8473553 28.2110934,33.7129454 23.0009704,37.0278078 Z M39.4437056,18.9047449 C36.3089708,14.6030885 31.9150774,10.0752656 27.0789736,6.5979443 C38.9880186,0.783658955 45.6929601,5.61132998 39.4437056,18.9047449 Z" id="Shape"></path>
                <path d="M8.89325333,4 C9.06268141,4 9.38728358,3.95467741 10.0370549,3.9789513 C11.0802686,4.02121844 11.9613432,3.16153201 11.9987599,2.06530237 C12.0362576,0.969157602 11.218759,0.0487015446 10.1727107,0.00948986191 C9.69196257,-0.0086731253 9.21720759,-0.000694990731 8.76221383,0.0328301492 C7.71810923,0.109725787 6.93122432,1.0591238 7.00476194,2.15340134 C7.07506001,3.2000647 7.90713654,4 8.89325333,4 Z" id="Path"></path>
            </g>
        </g>
    </g>
</svg>