<?xml version="1.0" encoding="UTF-8"?>
<svg width="40px" height="40px" viewBox="0 0 40 40" version="1.1" xmlns="http://www.w3.org/2000/svg" xmlns:xlink="http://www.w3.org/1999/xlink">
    <title>image-plus-svgrepo-com</title>
    <g id="Page-1" stroke="none" stroke-width="1" fill="none" fill-rule="evenodd" stroke-linecap="round" stroke-linejoin="round">
        <g id="Настройки-ЛК-моб" transform="translate(-140.000000, -305.000000)" stroke="#FFFFFF" stroke-width="2.5">
            <g id="Group-7" transform="translate(99.000000, 264.000000)">
                <g id="image-plus-svgrepo-com" transform="translate(43.000000, 43.000000)">
                    <path d="M21.7370118,27.3974824 L18.1001647,23.7909176 C16.4287059,22.1334353 15.5928706,21.3045882 14.6306118,20.9937176 C13.7841882,20.7201176 12.8731765,20.7201176 12.0265835,20.9937176 C11.0643882,21.3045882 10.2285953,22.1334353 8.55703059,23.7909176 L0.0887929412,32.3199529 M21.7370118,27.3974824 L22.4597647,26.6804471 C24.1665882,24.9880235 25.0197882,24.1418118 25.9989882,23.8330588 C26.8600235,23.5613647 27.7852235,23.5719529 28.6399059,23.8633412 C29.6114824,24.1947529 30.4452,25.0602353 32.1124235,26.7914118 L33.8823529,28.5884471 M21.7370118,27.3974824 L30.1129412,35.9212235 M30.1129412,35.9212235 C29.3724,36 28.4215765,36 27.1058824,36 L6.77647059,36 C4.40447294,36 3.21848471,36 2.31251294,35.5383529 C1.5156,35.1324 0.867663529,34.4844 0.461625882,33.6875294 C0.266463529,33.3044471 0.153825882,32.8713882 0.0887929412,32.3199529 M30.1129412,35.9212235 C30.7073647,35.8579059 31.1664706,35.7439765 31.5698824,35.5383529 C32.3667529,35.1324 33.0147529,34.4844 33.4207059,33.6875294 C33.8823529,32.7816 33.8823529,31.5955059 33.8823529,29.2235294 L33.8823529,21.1764706 M14.8235294,2.11764706 L6.77647059,2.11764706 C4.40447294,2.11764706 3.21848471,2.11764706 2.31251294,2.57927294 C1.5156,2.98531059 0.867663529,3.63322588 0.461625882,4.43016 C0,5.33613176 0,6.52214118 0,8.89411765 L0,29.2235294 C0,30.5928 0,31.5669176 0.0887929412,32.3199529 M29.6470588,12.7058824 L29.6470588,6.35294118 M29.6470588,6.35294118 L29.6470588,0 M29.6470588,6.35294118 L36,6.35294118 M29.6470588,6.35294118 L23.2941176,6.35294118" id="Shape"></path>
                </g>
            </g>
        </g>
    </g>
</svg>