<?xml version="1.0" encoding="UTF-8"?>
<svg width="15px" height="23px" viewBox="0 0 15 23" version="1.1" xmlns="http://www.w3.org/2000/svg" xmlns:xlink="http://www.w3.org/1999/xlink">
    <title>currency-btc-bold-svgrepo-com copy</title>
    <g id="Page-1" stroke="none" stroke-width="1" fill="none" fill-rule="evenodd">
        <g id="Group-5" transform="translate(-20.000000, -15.000000)" fill="#126154" fill-rule="nonzero">
            <g id="currency-btc-bold-svgrepo-com-copy" transform="translate(20.000000, 15.000000)">
                <path d="M12.3426558,10.5199412 C13.3702374,9.22006027 13.6888928,7.46423231 13.1876484,5.86393531 C12.6864039,4.26363831 11.434645,3.04039532 9.86830427,2.62020826 L9.86830427,1.23214286 C9.86830427,0.551649148 9.3381526,0 8.68417738,0 C8.03020216,0 7.5000505,0.551649148 7.5000505,1.23214286 L7.5000505,2.46418304 L5.92121465,2.46403312 L5.92121465,1.23214286 C5.92121463,0.551649162 5.39106297,0 4.73708776,0 C4.08311256,0 3.5529609,0.551649162 3.55296088,1.23214286 L3.55296088,2.46383496 L2.76306141,2.46378464 L1.18412689,2.46378464 C0.530151665,2.46378464 0,3.01543379 0,3.6959275 C0,4.37642121 0.530151665,4.92807036 1.18412689,4.92807036 L1.57883585,4.92807036 L1.57883585,18.0709275 L1.18412689,18.0709275 C0.530151665,18.0709275 0,18.6225766 0,19.3030704 C0,19.9835641 0.530151665,20.5352132 1.18412689,20.5352132 L2.76286406,20.5352132 L3.55296088,20.5352635 L3.55296088,21.7678571 C3.5529609,22.4483508 4.08311256,23 4.73708776,23 C5.39106297,23 5.92121463,22.4483508 5.92121465,21.7678571 L5.92121465,20.5354134 L7.5000505,20.5355644 L7.5000505,21.7678571 C7.5000505,22.4483509 8.03020216,23 8.68417738,23 C9.3381526,23 9.86830427,22.4483509 9.86830427,21.7678571 L9.86830427,20.5357143 C12.2101138,20.5360032 14.2549284,18.886258 14.8379654,16.5262188 C15.4210025,14.1661797 14.3942835,11.6948394 12.3426558,10.5199412 Z M11.0524312,7.39285714 C11.0509357,8.7531995 9.9915079,9.8555868 8.68417738,9.85714286 L3.94709159,9.85714286 L3.94709159,4.92816996 L4.73072802,4.92822027 C4.73284464,4.92827058 4.73491686,4.92857143 4.73708776,4.92857143 C4.73920735,4.92857143 4.74127957,4.92827058 4.74344751,4.92822027 L8.68417738,4.92857143 C9.9915079,4.93012748 11.0509357,6.03251478 11.0524312,7.39285714 L11.0524312,7.39285714 Z M9.86840295,18.0714286 L3.94709357,18.0710271 L3.94709357,12.3214286 L9.86830427,12.3214286 C11.3942464,12.3214286 12.6313163,13.6085586 12.6313163,15.1963772 C12.6313163,16.7841959 11.3943451,18.0714286 9.86840295,18.0714286 Z" id="Shape"></path>
            </g>
        </g>
    </g>
</svg>