<?xml version="1.0" encoding="UTF-8"?>
<svg width="19px" height="15px" viewBox="0 0 19 15" version="1.1" xmlns="http://www.w3.org/2000/svg" xmlns:xlink="http://www.w3.org/1999/xlink">
    <title>Path</title>
    <g id="Page-1" stroke="none" stroke-width="1" fill="none" fill-rule="evenodd">
        <g id="Group-Copy-6" transform="translate(-37.000000, -418.000000)" fill="#126154" fill-rule="nonzero">
            <g id="tick-small-svgrepo-com-copy" transform="translate(30.000000, 411.000000)">
                <path d="M8.11876405,14.4976107 C8.73270389,13.8796151 9.73138492,13.8763272 10.3493806,14.490267 C10.3517645,14.4926353 10.3541408,14.4950112 10.3565096,14.4973947 L13.3359707,17.4953807 L13.3359707,17.4953807 L22.6437078,8.12615483 C23.2575291,7.5082785 24.2560174,7.50499126 24.8738937,8.11881256 C24.8763492,8.12125192 24.8787966,8.12369935 24.8812359,8.12615483 C25.500289,8.74929751 25.5002576,9.75529057 24.8811656,10.3783946 L14.7532506,20.5719428 C13.9747287,21.3555099 12.7084053,21.3595998 11.9248383,20.5810779 C11.9217539,20.5780133 11.9186795,20.5749388 11.9156151,20.5718542 L8.11876405,16.7499204 C7.49969972,16.1267664 7.49969972,15.1207647 8.11876405,14.4976107 Z" id="Path"></path>
            </g>
        </g>
    </g>
</svg>