<?xml version="1.0" encoding="UTF-8"?>
<svg width="34px" height="46px" viewBox="0 0 34 46" version="1.1" xmlns="http://www.w3.org/2000/svg" xmlns:xlink="http://www.w3.org/1999/xlink">
    <title>chemistry-flask-svgrepo-com</title>
    <g id="Page-1" stroke="none" stroke-width="1" fill="none" fill-rule="evenodd">
        <g id="Вперед-к-открытиям" transform="translate(-251.000000, -1426.000000)" fill="#126154">
            <g id="chemistry-flask-svgrepo-com" transform="translate(251.000000, 1426.000000)">
                <path d="M13,33 C14.1046,33 15,32.1046 15,31 C15,29.8954 14.1046,29 13,29 C11.89544,29 11,29.8954 11,31 C11,32.1046 11.89544,33 13,33 Z" id="Path" fill-rule="nonzero"></path>
                <path d="M23,36 C23,37.1046 22.1046,38 21,38 C19.8954,38 19,37.1046 19,36 C19,34.8954 19.8954,34 21,34 C22.1046,34 23,34.8954 23,36 Z" id="Path" fill-rule="nonzero"></path>
                <path d="M23.375,4.18181818 L23.375,13.76136 C29.605075,16.2427882 34,22.2527091 34,29.2727273 C34,38.5109909 26.3888875,46 17,46 C7.611155,46 0,38.5109909 0,29.2727273 C0,22.2527091 4.39486125,16.2427882 10.625,13.76136 L10.625,4.18181818 L8.5,4.18181818 C7.326405,4.18181818 6.375,3.24567636 6.375,2.09090909 C6.375,0.936141818 7.326405,0 8.5,0 L25.5,0 C26.6736375,0 27.625,0.936141818 27.625,2.09090909 C27.625,3.24567636 26.6736375,4.18181818 25.5,4.18181818 L23.375,4.18181818 Z M12.2196637,17.6376336 L13.5473,17.1088427 C14.3499125,16.7892055 14.875,16.0225318 14.875,15.1706955 L14.875,4.18181818 L19.125,4.18181818 L19.125,15.1706955 C19.125,16.0225318 19.6500875,16.7892055 20.4527,17.1088427 L21.7804,17.6376336 C23.6034375,18.3637855 25.2154625,19.4916636 26.504275,20.9090909 L7.49570375,20.9090909 C8.784495,19.4916636 10.3965413,18.3637855 12.2196637,17.6376336 Z M4.975475,25.0909091 C4.50553125,26.3994 4.25,27.8072091 4.25,29.2727273 C4.25,36.2013727 9.95836625,41.8181818 17,41.8181818 C24.0416125,41.8181818 29.75,36.2013727 29.75,29.2727273 C29.75,27.8072091 29.494575,26.3994 29.024525,25.0909091 L4.975475,25.0909091 Z" id="Shape"></path>
            </g>
        </g>
    </g>
</svg>