<?xml version="1.0" encoding="UTF-8"?>
<svg width="48px" height="48px" viewBox="0 0 48 48" version="1.1" xmlns="http://www.w3.org/2000/svg" xmlns:xlink="http://www.w3.org/1999/xlink">
    <title>dna-svgrepo-com</title>
    <g id="Page-1" stroke="none" stroke-width="1" fill="none" fill-rule="evenodd">
        <g id="Биология" transform="translate(-245.000000, -2963.000000)" fill="#126154">
            <g id="dna-svgrepo-com" transform="translate(245.000000, 2963.000000)">
                <path d="M30.7653547,0.490421092 C31.4192718,1.14431588 31.4192718,2.20451445 30.7653547,2.85840924 C29.8370558,3.78673042 29.0027478,4.77387959 28.2653329,5.80420649 L30.9593643,8.49841645 C31.6132814,9.15233357 31.6132814,10.2125098 30.9593643,10.8664046 C30.3056704,11.5203217 29.2454272,11.5203217 28.5915101,10.8664046 L26.4754887,8.75033863 C26.0064277,9.67459656 25.6081388,10.6192378 25.2821849,11.5748855 L36.1732872,22.4658092 C36.2554454,22.5479674 36.3273339,22.6366001 36.3887293,22.7301444 C37.299391,22.4216045 38.2000061,22.047204 39.0827607,21.6085058 L32.3676637,14.8933195 C31.7137466,14.2394024 31.7137466,13.1792262 32.3676637,12.525309 C33.0215808,11.8714143 34.0818241,11.8714143 34.7357412,12.525309 L42.0491645,19.8389779 C43.1326263,19.0761118 44.1694277,18.2069089 45.141708,17.2346286 C45.7956251,16.5807338 46.855645,16.5807338 47.5095622,17.2346286 C48.1634793,17.8885233 48.1634793,18.9487219 47.5095622,19.6025497 C41.6544477,25.4578874 33.5252466,28.2059468 26.1736465,26.7759915 C27.847844,33.8634796 25.2812919,41.83082 19.6025497,47.5095622 C18.9487219,48.1634793 17.8885233,48.1634793 17.2346286,47.5095622 C16.5807338,46.855645 16.5807338,45.7956251 17.2346286,45.141708 C18.2096996,44.1665253 19.0729416,43.12191 19.8204477,42.0286249 L16.7985871,39.0066304 C16.14467,38.3527132 16.14467,37.2926933 16.7985871,36.6387762 C17.4524819,35.9848591 18.5126581,35.9848591 19.1665752,36.6387762 L21.5386266,39.010649 C21.9549992,38.1118199 22.3003764,37.1951304 22.5729721,36.2704036 C22.5361349,36.2395943 22.5004139,36.2067756 22.4658092,36.1721709 L11.7227927,25.4290874 C10.7411356,25.7188738 9.7686097,26.0905952 8.81684663,26.5424656 L15.1374947,32.863069 C15.7913895,33.5169861 15.7913895,34.5772293 15.1374947,35.2311465 C14.4835999,35.8850636 13.4234014,35.8850636 12.7695066,35.2311465 L5.82141954,28.2829701 C4.78258658,29.0065431 3.78880671,29.8350465 2.85840924,30.7653547 C2.20451445,31.4192718 1.14431588,31.4192718 0.490421092,30.7653547 C-0.163473697,30.1114376 -0.163473697,29.0514176 0.490421092,28.3975005 C6.16914091,22.7187584 14.136459,20.1522062 21.2240588,21.8264037 C19.7941035,14.4748483 22.5421628,6.34569184 28.3975005,0.490421092 C29.0514176,-0.163473697 30.1114376,-0.163473697 30.7653547,0.490421092 Z M32.5973943,23.6260711 L24.3739791,15.4026337 C24.0210112,18.0133012 24.2114486,20.6136766 24.9801194,23.0199308 C27.3863736,23.7886016 29.9866374,23.979039 32.5973943,23.6260711 Z M22.504879,26.1298883 C23.171745,28.066635 23.4269267,30.1489446 23.2914103,32.2618403 L15.7382769,24.70864 C17.8511279,24.5731235 19.9334153,24.8283052 21.8701619,25.4951712 L22.3423486,25.6577017 L22.504879,26.1298883 Z" id="Shape"></path>
            </g>
        </g>
    </g>
</svg>