<?xml version="1.0" encoding="UTF-8"?>
<svg width="52px" height="57px" viewBox="0 0 52 57" version="1.1" xmlns="http://www.w3.org/2000/svg" xmlns:xlink="http://www.w3.org/1999/xlink">
    <title>fire-svgrepo-com-2</title>
    <g id="Page-1" stroke="none" stroke-width="1" fill="none" fill-rule="evenodd">
        <g id="Альтернативная-энергетика" transform="translate(-243.000000, -1522.000000)" stroke="#166155" stroke-width="3.058824">
            <g id="fire-svgrepo-com-2" transform="translate(245.000000, 1524.000000)">
                <path d="M0,27.9692123 C0,47.9937861 14.9333365,53 22.3999059,53 C26.2232471,53 31.7593412,51.9952654 36.7058824,49.0849707 M44.3878588,41.7361596 C46.5941647,38.2266285 48,33.7163053 48,27.9692123 C48,15.2218396 39.9961412,6.11784065 32.7594353,0.898177016 C29.4883765,-1.46109067 25.4117647,1.13001501 25.4117647,5.15602132 L25.4117647,6.06735049 C25.4117647,10.1275707 23.7001412,17.5387553 18.9439624,20.621246 C16.5157271,22.1950861 13.8932329,19.8395355 13.5981176,16.9664677 L13.3557741,14.6071437 C13.0740706,11.8643704 10.2731576,10.1993495 8.07518118,11.8716074 C6.17771294,13.3151812 4.23921882,15.2798203 2.73724235,17.8004988" id="Shape" stroke-linecap="round"></path>
                <path d="M14,43.0225183 C14,51.0045037 21.1111429,53 24.6665714,53 C27.7777143,53 34,51.0045037 34,43.0225183 C34,39.9328804 32.3162857,37.8470241 30.6868571,36.6434404 C29.5497143,35.8035416 27.9508571,36.557851 27.5597143,37.9014646 C27.05,39.6528206 25.208,40.753697 24.2697143,39.1819385 C23.4117143,37.744878 23.4117143,35.5894277 23.4117143,34.2921166 C23.4117143,32.5056829 21.5825714,31.3492435 20.1111429,32.3993275 C17.1614,34.5045467 14,38.075169 14,43.0225183 Z" id="Path"></path>
            </g>
        </g>
    </g>
</svg>