<?xml version="1.0" encoding="UTF-8"?>
<svg width="52px" height="52px" viewBox="0 0 52 52" version="1.1" xmlns="http://www.w3.org/2000/svg" xmlns:xlink="http://www.w3.org/1999/xlink">
    <title>earth-svgrepo-com-2</title>
    <g id="Page-1" stroke="none" stroke-width="1" fill="none" fill-rule="evenodd">
        <g id="Альтернативная-энергетика" transform="translate(-243.000000, -1366.000000)" stroke="#166155" stroke-width="3">
            <g id="earth-svgrepo-com-2" transform="translate(245.000000, 1368.000000)">
                <circle id="Oval" cx="24" cy="24" r="24"></circle>
                <path d="M9,6.65788652 C10.8855837,8.31574971 14.7699239,12.8472938 15.2224698,17.7104011 C15.6454598,22.2559917 18.752961,25.9498543 23.5000287,25.9997871 C25.324374,26.0189202 27.1692609,24.7465665 27.1646693,22.985151 C27.1632193,22.4403232 27.0701774,21.8833622 26.9244521,21.3712007 C26.7216934,20.6583746 26.70381,19.8386829 27.1250358,18.9998581 C28.5989638,16.0658145 31.4977612,15.2776925 33.7948074,13.684252 C34.8134344,12.9775391 35.7426446,12.2320233 36.152512,11.6315228 C37.2839976,9.97363624 38.4152415,6.65788652 37.8494987,5" id="Path"></path>
                <path d="M48,27 C47.2313986,29.1723333 46.6874976,34.875 38.0091148,34.9655333 C38.0091148,34.9655333 30.3240339,34.9655333 28.0184629,39.3104333 C26.1739595,42.7861667 27.2498615,46.5517 28.0184629,48" id="Path"></path>
            </g>
        </g>
    </g>
</svg>