<?xml version="1.0" encoding="UTF-8"?>
<svg width="46px" height="49px" viewBox="0 0 46 49" version="1.1" xmlns="http://www.w3.org/2000/svg" xmlns:xlink="http://www.w3.org/1999/xlink">
    <title>farm-agriculture-hand-plant-grow-nature-svgrepo-com</title>
    <g id="Page-1" stroke="none" stroke-width="1" fill="none" fill-rule="evenodd" stroke-linecap="round" stroke-linejoin="round">
        <g id="Биология" transform="translate(-246.000000, -3086.000000)" stroke="#126154" stroke-width="3.23076923">
            <g id="farm-agriculture-hand-plant-grow-nature-svgrepo-com" transform="translate(248.000000, 3088.000000)">
                <path d="M0,36.9642857 L4.2,30.2142857 C6.62307692,26.5178571 10.6615385,24.1071429 15.1846154,24.1071429 L25.8461538,24.1071429 L25.8461538,24.1071429 C25.8461538,27.6428571 22.9384615,30.5357143 19.3846154,30.5357143 L16.1538462,30.5357143" id="Path"></path>
                <path d="M21,30.5357143 L32.3076923,30.5357143 L34.2461538,27.9642857 C36.0230769,25.5535714 38.9307692,24.1071429 42,24.1071429 L42,24.1071429 L37.6384615,31.8214286 C35.3769231,36 30.8538462,38.5714286 26.1692308,38.5714286 L26.1692308,38.5714286 C18.5769231,38.5714286 11.1461538,40.8214286 4.84615385,45 L4.84615385,45" id="Path"></path>
                <path d="M24.2307692,12.8571429 L24.2307692,12.8571429 L24.2307692,12.8571429 C24.2307692,6.58928571 29.2384615,1.60714286 35.5384615,1.60714286 L35.5384615,1.60714286 L35.5384615,1.60714286 C35.5384615,7.875 30.5307692,12.8571429 24.2307692,12.8571429 Z" id="Path"></path>
                <path d="M24.2307692,17.6785714 L24.2307692,17.6785714 C17.9307692,17.6785714 12.9230769,12.6964286 12.9230769,6.42857143 L12.9230769,6.42857143 L12.9230769,6.42857143 C19.2230769,6.42857143 24.2307692,11.4107143 24.2307692,17.6785714 L24.2307692,17.6785714 Z" id="Path"></path>
                <line x1="24.2307692" y1="0" x2="24.2307692" y2="24.1071429" id="Path"></line>
            </g>
        </g>
    </g>
</svg>