<?xml version="1.0" encoding="UTF-8"?>
<svg width="19px" height="19px" viewBox="0 0 19 19" version="1.1" xmlns="http://www.w3.org/2000/svg" xmlns:xlink="http://www.w3.org/1999/xlink">
    <title>like-svgrepo-com-2</title>
    <g id="Page-1" stroke="none" stroke-width="1" fill="none" fill-rule="evenodd" stroke-linecap="round" stroke-linejoin="round">
        <g id="Страница-о-человеке" transform="translate(-277.000000, -564.000000)" stroke="#000000">
            <g id="Group-5-Copy" transform="translate(175.000000, 415.000000)">
                <g id="Group-4" transform="translate(40.000000, 40.000000)">
                    <g id="Group-3-Copy" transform="translate(63.000000, 107.000000)">
                        <g id="like-svgrepo-com-2" transform="translate(0.000000, 3.000000)">
                            <path d="M4.10600426,6.85680868 L4.10600426,17 M4.10600426,6.8567884 L0,6.8567884 L0,17 L4.10600426,17 M4.10600426,6.85680868 L9.4392932,0.708482835 C9.94535823,0.1250769 10.7415125,-0.125723649 11.4959907,0.0606372054 L11.5447495,0.0726974599 C12.9221087,0.412950813 13.5425259,1.9987982 12.7550969,3.16605637 L10.2650107,6.8567884 L14.9462661,6.8567884 C16.2418131,6.8567884 17.213499,8.02794155 16.95944,9.28326291 L15.7276387,15.3691777 C15.535683,16.3174647 14.693131,17 13.7144648,17 L4.10600426,17" id="Shape"></path>
                        </g>
                    </g>
                </g>
            </g>
        </g>
    </g>
</svg>