<?xml version="1.0" encoding="UTF-8"?>
<svg width="11px" height="17px" viewBox="0 0 11 17" version="1.1" xmlns="http://www.w3.org/2000/svg" xmlns:xlink="http://www.w3.org/1999/xlink">
    <title>person-svgrepo-com</title>
    <g id="Page-1" stroke="none" stroke-width="1" fill="none" fill-rule="evenodd">
        <g id="Новые-карточки" transform="translate(-1022.000000, -360.000000)" fill="#FFFFFF" fill-rule="nonzero">
            <g id="Group-Copy" transform="translate(70.000000, 70.000000)">
                <g id="Group-7" transform="translate(933.000000, 265.000000)">
                    <g id="person-svgrepo-com" transform="translate(19.000000, 25.000000)">
                        <path d="M5.49998304,9 C7.98509539,9 10,6.9852888 10,4.5 C10,2.01542358 7.98509539,0 5.49998304,0 C3.01453143,0 1,2.01542358 1,4.5 C1,6.9852888 3.01453143,9 5.49998304,9 Z" id="Path"></path>
                        <path d="M10.9515934,12.8688684 C10.7615451,11.6362975 9.79628474,9.93253925 9.10463998,9.13491565 C8.91757626,8.919075 8.59283826,9.00885804 8.47871944,9.08533345 C7.6109543,9.66461471 6.59229302,10.0025867 5.49998082,10.0025867 C4.4077007,10.0025867 3.38903942,9.66461471 2.52127428,9.08533345 C2.40718756,9.00885804 2.08241747,8.919075 1.89532166,9.13491565 C1.20374108,9.93253925 0.238480732,11.6362975 0.0484003725,12.8688684 C-0.418601044,15.9035629 2.57570216,17 5.50001291,17 C8.42432366,17 11.4186269,15.9035629 10.9515934,12.8688684 Z" id="Path"></path>
                    </g>
                </g>
            </g>
        </g>
    </g>
</svg>