<?xml version="1.0" encoding="UTF-8"?>
<svg width="50px" height="50px" viewBox="0 0 50 50" version="1.1" xmlns="http://www.w3.org/2000/svg" xmlns:xlink="http://www.w3.org/1999/xlink">
    <title>Shape</title>
    <g id="Page-1" stroke="none" stroke-width="1" fill="none" fill-rule="evenodd" stroke-linecap="round" stroke-linejoin="round">
        <g id="Вперед-к-открытиям" transform="translate(-243.000000, -1278.000000)" stroke="#126154" stroke-width="4">
            <g id="technology-svgrepo-com" transform="translate(245.000000, 1280.000000)">
                <path d="M34.5,40.8888889 C38.028486,40.8888889 40.8888889,38.028486 40.8888889,34.5 C40.8888889,30.971514 38.028486,28.1111111 34.5,28.1111111 C30.971514,28.1111111 28.1111111,30.971514 28.1111111,34.5 C28.1111111,38.028486 30.971514,40.8888889 34.5,40.8888889 Z M17.8888889,5.11111111 L23,0 M11.5,17.8888889 C15.0284859,17.8888889 17.8888889,15.0284859 17.8888889,11.5 C17.8888889,7.97151411 15.0284859,5.11111111 11.5,5.11111111 C7.97151411,5.11111111 5.11111111,7.97151411 5.11111111,11.5 C5.11111111,15.0284859 7.97151411,17.8888889 11.5,17.8888889 Z M12.7777778,33.2222222 L33.2222222,12.7777778 M6.38888889,46 C9.91737478,46 12.7777778,43.1395971 12.7777778,39.6111111 C12.7777778,36.0826251 9.91737478,33.2222222 6.38888889,33.2222222 C2.860403,33.2222222 0,36.0826251 0,39.6111111 C0,43.1395971 2.860403,46 6.38888889,46 Z M39.6111111,12.7777778 C43.1395971,12.7777778 46,9.91737478 46,6.38888889 C46,2.860403 43.1395971,0 39.6111111,0 C36.0826251,0 33.2222222,2.860403 33.2222222,6.38888889 C33.2222222,9.91737478 36.0826251,12.7777778 39.6111111,12.7777778 Z M23,46 L28.1111111,40.8888889" id="Shape"></path>
            </g>
        </g>
    </g>
</svg>