<?xml version="1.0" encoding="UTF-8"?>
<svg width="48px" height="48px" viewBox="0 0 48 48" version="1.1" xmlns="http://www.w3.org/2000/svg" xmlns:xlink="http://www.w3.org/1999/xlink">
    <title>pill-svgrepo-com-2</title>
    <g id="Page-1" stroke="none" stroke-width="1" fill="none" fill-rule="evenodd">
        <g id="Биология" transform="translate(-245.000000, -2838.000000)" fill="#126154" fill-rule="nonzero">
            <g id="pill-svgrepo-com-2" transform="translate(245.000000, 2838.000000)">
                <path d="M44.3645015,4.2 L43.7649813,3.6 C41.6666602,1.2 38.3692986,0 35.3716972,0 C32.3740957,0 29.0767341,1.2 26.678653,3.6 L3.59712175,26.7 C-1.19904058,31.5 -1.19904058,39 3.59712175,43.8 L4.19664204,44.4 C6.29496306,46.8 9.59232466,48 12.5899261,48 C15.5875276,48 18.8848892,46.8 21.2829703,44.4 L44.6642617,21 C49.1606639,16.5 49.1606639,8.7 44.3645015,4.2 Z M42.2661805,19.2 L30.5755348,30.9 L20.0839298,20.1 L8.69304422,31.5 C5.39568262,34.8 5.39568262,39 5.69544277,42 L5.69544277,42 C2.09832102,38.4 2.09832102,32.7 5.69544277,29.1 L29.0767341,5.7 C30.5755348,3.9 32.973616,3 35.3716972,3 C37.7697783,3 40.1678595,3.9 41.9664204,5.7 L42.5659407,6.3 C44.0647414,7.8 44.9640218,10.2 44.9640218,12.6 C44.9640218,15 44.0647414,17.4 42.2661805,19.2 Z" id="Shape"></path>
            </g>
        </g>
    </g>
</svg>