<?xml version="1.0" encoding="UTF-8"?>
<svg width="41px" height="42px" viewBox="0 0 41 42" version="1.1" xmlns="http://www.w3.org/2000/svg" xmlns:xlink="http://www.w3.org/1999/xlink">
    <title>internet-of-things-svgrepo-com</title>
    <g id="Page-1" stroke="none" stroke-width="1" fill="none" fill-rule="evenodd">
        <g id="Альтернативная-энергетика" transform="translate(-248.000000, -3310.000000)" fill="#166155" fill-rule="nonzero">
            <g id="internet-of-things-svgrepo-com" transform="translate(248.000000, 3310.000000)">
                <path d="M37.879875,26.1486466 C38.7974045,26.2562973 39.6810608,26.5463258 40.4737708,27 L40.5434992,27 C41.3670359,23.2864149 41.0721124,19.4263426 39.6928129,15.8658933 C39.4250392,15.1807913 38.6277897,14.8302602 37.9077663,15.0810519 L37.9077663,15.0810519 C37.1895341,15.3364739 36.8220519,16.0969483 37.0849714,16.7837588 C38.2375138,19.7784152 38.5123353,23.0161324 37.879875,26.1486466 L37.879875,26.1486466 Z" id="Path"></path>
                <path d="M32.0669123,36 C29.8062043,37.8081793 27.0911989,39.0174961 24.1918506,39.5077073 C23.4753305,39.5660997 22.9438489,40.1703346 23.0047531,40.8573039 C23.0656573,41.5442731 23.6958842,42.0538353 24.4124042,41.9954429 L24.6459316,41.9954429 C28.101621,41.4109924 31.3312994,39.9507939 34,37.7662923 L34,37.6792216 C33.2361114,37.2606892 32.5764623,36.6876697 32.0669123,36 Z" id="Path"></path>
                <path d="M17.7876743,39.4546225 L17.7876743,39.4546225 C15.781095,39.0961221 13.8555172,38.404071 12.0980913,37.4097908 C11.3468657,36.9844553 10.6248012,36.5135648 9.93631498,36 C9.43065045,36.7113176 8.77005884,37.3092717 8,37.7527129 C8.86119804,38.4485197 9.77924509,39.0771059 10.7453233,39.6324339 C12.7709551,40.7751154 14.9873875,41.5743036 17.2969644,41.9947861 L17.5489506,41.9947861 C18.2814144,42.0579163 18.9286338,41.5404584 18.9945555,40.8390116 C19.0604773,40.1375649 18.5201382,39.5177527 17.7876743,39.4546225 L17.7876743,39.4546225 Z" id="Path"></path>
                <path d="M3.31966637,26.2208293 C3.60205459,26.2006435 3.8824939,26.160918 4.15872569,26.1019727 C3.4920942,22.9879752 3.75350932,19.7603668 4.91387908,16.7783368 C5.18033387,16.0927357 4.80780472,15.3329597 4.08181191,15.0813295 C3.3558191,14.8296993 2.55128135,15.1815022 2.28482653,15.8671033 C0.899670149,19.4305613 0.627845941,23.294826 1.5017045,27 C2.06287132,26.655624 2.67572085,26.3929593 3.31966637,26.2208293 L3.31966637,26.2208293 Z" id="Path"></path>
                <path d="M38.9701393,28.7705116 C38.0123313,28.1542965 36.8504497,27.9512566 35.7436365,28.2066772 C35.0489984,28.3905318 34.4103031,28.7456992 33.884746,29.2403737 L28.7462416,26.2332566 C30.4173755,22.0589762 28.8625609,17.2748463 25.0682939,14.9162938 L24.9222383,14.8223214 C23.9313321,14.2519531 22.8398575,13.8825846 21.7090133,13.7349263 L21.7090133,8.63356706 C22.7670983,8.31350535 23.6616363,7.59188506 24.2052376,6.6198726 C25.4259238,4.53056029 24.7569818,1.83717113 22.7048475,0.578789233 C21.734416,0.00475850019 20.5762699,-0.150078416 19.4916225,0.149201083 C18.3733476,0.437431722 17.4164999,1.16784102 16.8360646,2.17632017 C15.6508399,4.2537252 16.3158593,6.90751955 18.3364548,8.16370502 C18.6399955,8.3671506 18.9709031,8.52539178 19.3190112,8.63356706 L19.3190112,13.7349263 C16.6088407,14.1110064 14.2248669,15.7377369 12.8660056,18.1382049 C11.4618455,20.5926207 11.2560745,23.5647156 12.3083385,26.1929827 L6.99722279,29.2672229 C6.80954478,29.1002842 6.60982508,28.9477161 6.39972227,28.8107855 L6.39972227,28.8107855 C5.4225687,28.2426326 4.26216624,28.0903453 3.17393054,28.3874435 C2.08569485,28.6845417 1.15882301,29.4066739 0.597328376,30.3948918 C-0.595100168,32.4619632 0.0515572717,35.1128611 2.05788519,36.3822767 C2.71935924,36.7849583 3.4765996,36.9984024 4.24872042,36.9999086 C4.59834093,37.0023165 4.94670021,36.9571612 5.28438798,36.8655633 C6.42923865,36.5701565 7.40352638,35.8116769 7.97861448,34.7681172 C8.55370258,33.7245576 8.67896333,32.4877875 8.32500171,31.3480405 L13.4767839,28.3409235 C14.168612,29.2537192 15.0189672,30.0315967 15.9862861,30.6365352 C19.8394154,33.0929021 24.9178401,32.0930397 27.5777961,28.3543481 L32.6631894,31.3211913 C32.1710642,33.2009531 32.9527648,35.1849929 34.5884688,36.2077565 C35.2444604,36.6118742 35.9978577,36.82553 36.7660263,36.8252895 C38.2781208,36.8309833 39.6770391,36.0161722 40.4306961,34.6907733 C41.5797701,32.6388362 40.9377483,30.0364474 38.9701393,28.7705116 L38.9701393,28.7705116 Z M5.90844407,33.6302276 C5.64035302,34.0730686 5.20301344,34.3840496 4.70016525,34.4894039 C4.2112211,34.6313906 3.68572243,34.5582745 3.25288622,34.2880344 C2.35010133,33.7216693 2.05603133,32.5323807 2.58899676,31.6031085 C2.84260097,31.1589543 3.26470889,30.8388722 3.75744222,30.7170829 C3.90441955,30.6750636 4.05616761,30.6525009 4.20888705,30.6499598 C4.56183198,30.6508261 4.90723925,30.7532661 5.20472124,30.9453016 C6.12184771,31.4983088 6.43434596,32.6905888 5.90844407,33.6302276 Z M18.894122,3.38453684 C19.1477262,2.94038264 19.5698341,2.62030059 20.0625674,2.49851128 C20.2095447,2.45649197 20.3612928,2.43392928 20.5140122,2.43138813 C20.8506728,2.43298516 21.18077,2.52569287 21.4700131,2.69988073 C22.372798,3.26624584 22.666868,4.45553445 22.1339025,5.38480667 C21.8802983,5.82896088 21.4581904,6.14904292 20.9654571,6.27083223 C20.4888092,6.40107657 19.9802017,6.32830785 19.5580114,6.06946279 C18.6552265,5.50309768 18.3611565,4.31380906 18.894122,3.38453684 Z M22.0940692,29.3209214 C20.4352388,29.7545912 18.6735146,29.4932184 17.2078427,28.5959914 C14.0924083,26.6622886 13.072704,22.5681606 14.9107852,19.3732708 C16.0701408,17.3540572 18.2047651,16.1112842 20.5140122,16.1110683 C21.6629917,16.1083802 22.7914144,16.4191137 23.7803484,17.010536 C26.8957828,18.9442389 27.9154871,23.0383668 26.0774059,26.2332566 C25.2161519,27.7637969 23.7795611,28.8773635 22.0940692,29.3209214 L22.0940692,29.3209214 Z M38.359361,33.4557074 C38.1027151,33.8998341 37.6826379,34.2232027 37.1909155,34.3551576 C36.7124678,34.4814102 36.2037441,34.4037725 35.7834699,34.1403635 C34.880685,33.5739984 34.586615,32.3847098 35.1195804,31.4554376 C35.360805,30.9735879 35.7966745,30.6210361 36.3145814,30.4888642 C36.46477,30.4754367 36.6158377,30.4754367 36.7660263,30.4888642 L36.7660263,30.4888642 C37.0889117,30.4862609 37.4061405,30.5745798 37.6821937,30.7439322 C38.6055219,31.3069436 38.9076966,32.5170282 38.359361,33.4557074 L38.359361,33.4557074 Z" id="Shape"></path>
                <path d="M8.23724338,11.5539085 C10.0481936,9.36487925 12.3762239,7.68621018 15,6.67749838 C14.7460077,5.81022885 14.672798,4.89805231 14.7851087,4 C11.4981724,5.12451263 8.57107122,7.14068831 6.31586206,9.83358343 C5.8516091,10.376503 5.90537359,11.2017342 6.43594839,11.6767888 C6.96652319,12.1518435 7.77299043,12.0968281 8.23724338,11.5539085 Z" id="Path"></path>
                <path d="M29.6276203,7.96111849 C31.1902282,8.91724349 32.5882309,10.1286065 33.7658049,11.5468369 C34.0605841,11.8983174 34.5168478,12.0627261 34.962726,11.9781319 C35.4086041,11.8935377 35.7763572,11.5727925 35.9274561,11.1367178 C36.0785551,10.7006432 35.9900444,10.2154892 35.6952652,9.86400875 L35.6952652,9.86400875 C34.3395992,8.22385658 32.7267973,6.82411682 30.9223897,5.72166261 C29.7389881,5.01995939 28.4885317,4.44309065 27.1904073,4 C27.3178562,4.8924222 27.2528766,5.80245436 27,6.66663533 C27.9089646,7.02447507 28.7877581,7.45740803 29.6276203,7.96111849 L29.6276203,7.96111849 Z" id="Path"></path>
            </g>
        </g>
    </g>
</svg>