<?xml version="1.0" encoding="UTF-8"?>
<svg width="19px" height="18px" viewBox="0 0 19 18" version="1.1" xmlns="http://www.w3.org/2000/svg" xmlns:xlink="http://www.w3.org/1999/xlink">
    <title>telegram-svgrepo-com</title>
    <g id="Page-1" stroke="none" stroke-width="1" fill="none" fill-rule="evenodd">
        <g id="Лекарство-от-рака" transform="translate(-907.000000, -6668.000000)" fill="#FFFFFF" fill-rule="nonzero">
            <g id="Group-18" transform="translate(-9.000000, 6528.000000)">
                <g id="telegram-svgrepo-com" transform="translate(916.000000, 140.857143)">
                    <path d="M17.3801718,0.143774948 C17.3801718,0.143774948 19.1378087,-0.561163326 18.9913277,1.15083162 C18.9425157,1.8557792 18.5031178,4.32306316 18.1613438,6.99177799 L16.9895858,14.8971838 C16.9895858,14.8971838 16.891962,16.0552834 16.0131209,16.2567143 C15.1342798,16.4580986 13.816086,15.551776 13.5719359,15.3503451 C13.3766429,15.1993068 9.91022622,12.9334072 8.6896111,11.8256537 C8.34783705,11.5235307 7.95725107,10.9192846 8.73842304,10.2143463 L13.864898,5.17908622 C14.450777,4.57484012 15.0366559,3.16496357 12.5954709,4.87696317 L5.76021623,9.66049283 C5.76021623,9.66049283 4.97904427,10.1640002 3.51436945,9.71083891 L0.340833468,8.70377759 C0.340833468,8.70377759 -0.830929002,7.94849323 1.17083094,7.19316234 C6.05317834,4.82657055 12.0584491,2.40963268 17.3801718,0.143774948 Z" id="Path"></path>
                </g>
            </g>
        </g>
    </g>
</svg>