<?xml version="1.0" encoding="UTF-8"?>
<svg width="80px" viewBox="0 0 48 59" version="1.1" xmlns="http://www.w3.org/2000/svg" xmlns:xlink="http://www.w3.org/1999/xlink">
    <title>wind-turbine-svgrepo-com</title>
    <g id="Page-1" stroke="none" stroke-width="1" fill="none" fill-rule="evenodd">
        <g id="Альтернативная-энергетика" transform="translate(-245.000000, -1212.000000)" fill="#166155" fill-rule="nonzero">
            <g id="wind-turbine-svgrepo-com" transform="translate(245.000000, 1212.000000)">
                <path d="M7.49752343,0.00592962628 C7.15394013,0.0291055268 6.82892774,0.117175373 6.4946299,0.265503035 C5.16208125,0.863448626 4.6095621,2.27719755 4.41455443,3.86244884 C4.21954795,5.44770132 4.33098056,7.39450189 4.71170807,9.68430958 C5.45923489,14.1851274 7.237514,19.9745411 9.80046413,26.2599258 C6.03497007,31.9010119 3.15165146,37.2037258 1.51730645,41.4635112 C0.686204567,43.6328033 0.161542971,45.5471568 0.0315382537,47.1370443 C-0.0984664633,48.7269317 0.142970868,50.2148433 1.33158542,51.0677273 C2.51555725,51.9206114 4.02454028,51.6934849 5.49173637,51.0677273 C6.95893246,50.4419697 8.60256412,49.3480532 10.3947714,47.8786826 C11.5787432,46.9052829 12.8462889,45.7603785 14.1463361,44.4671464 L13.03201,57.7053902 C12.9948657,58.1318322 13.1898734,58.5443682 13.5427434,58.7900368 C13.8956133,59.0310693 14.3506292,59.0681512 14.7360006,58.8827416 C15.1213721,58.697332 15.3813815,58.3172418 15.4092391,57.8907998 L16.7835746,41.6860027 C17.9396877,40.4205826 19.1236595,39.0207397 20.3122741,37.5699101 L21.7980423,57.8907998 C21.825901,58.3172418 22.0859105,58.697332 22.4712807,58.8827416 C22.8566521,59.0681512 23.3116692,59.0310693 23.6645392,58.7900368 C24.0174091,58.5443682 24.2124156,58.1318322 24.1752714,57.7053902 L22.5409264,35.2337494 C29.1897391,35.6416505 35.1513839,35.4608758 39.5901164,34.7516845 C41.8837717,34.3855003 43.7920543,33.8802595 45.2360356,33.194244 C46.6800168,32.5082286 47.8361299,31.5672747 47.9847067,30.116445 C48.1332835,28.6609804 47.1814636,27.4789941 45.9046313,26.5194992 C44.6277989,25.5600044 42.8448771,24.7024854 40.6672984,23.8866832 C36.3864294,22.282891 30.5037156,20.8830481 23.7666852,19.9560002 C20.7580046,13.879201 17.582175,8.73408579 14.7034992,5.1973978 C13.2409458,3.3989249 11.8573248,1.98517716 10.5433482,1.08130518 C9.88403919,0.627052305 9.22472896,0.288678936 8.53756117,0.117175373 C8.19397787,0.0291055268 7.84110792,-0.0172462743 7.49752343,0.00592962628 Z M7.68324445,2.37917222 C7.96646872,2.38380716 8.4539873,2.52749988 9.20615685,3.0466467 C10.2090504,3.73729708 11.4719533,4.98881232 12.8462889,6.68067442 C15.1445869,9.50353495 17.7353946,13.7494143 20.2751299,18.5468874 C19.7226096,18.4402766 19.1886625,18.287314 18.6036407,18.287314 C15.3628094,18.287314 12.5630647,20.062611 11.0262229,22.66298 C9.12258299,17.6105696 7.68324445,12.8872603 7.08893718,9.31349043 C6.7314245,7.15810438 6.64320672,5.36890136 6.79178354,4.15910417 C6.94036036,2.94930697 7.27930093,2.49505291 7.46037922,2.41625414 C7.50681008,2.39771318 7.59038394,2.37917222 7.68324445,2.37917222 Z M18.6036407,20.6605566 C19.9408321,20.6605566 21.1758775,21.0869986 22.2066286,21.773014 C22.2437728,21.8008261 22.280917,21.824002 22.3180612,21.8471779 C22.3830641,21.9167068 22.4573525,21.9815995 22.5409264,22.0325875 C24.0916975,23.2238437 25.1038765,25.0501286 25.1038765,27.1498918 C25.1038765,29.717815 23.5856069,31.877836 21.4266003,32.9346706 C21.3198104,32.9810236 21.2176644,33.0459164 21.1294466,33.1200802 C21.1062318,33.1293513 21.078373,33.1432561 21.0551582,33.1571621 C20.293702,33.4677235 19.467244,33.639227 18.6036407,33.639227 C15.0052955,33.639227 12.1034048,30.7422027 12.1034048,27.1498918 C12.1034048,27.1406219 12.1544784,27.0061991 12.1776932,26.7049088 C12.1776932,26.6678269 12.1776932,26.630745 12.1776932,26.5936631 C12.1776932,26.5565811 12.1776932,26.5194992 12.1776932,26.4824173 C12.1962653,26.4221595 12.205552,26.3619017 12.2148374,26.2970077 C12.6327103,23.107963 15.2931637,20.6605566 18.6036407,20.6605566 Z M18.6036407,22.217997 C15.989617,22.217997 13.8491825,24.3548421 13.8491825,26.9644822 C13.8491825,29.5741223 15.989617,31.7109674 18.6036407,31.7109674 C21.2176644,31.7109674 23.3580989,29.5741223 23.3580989,26.9644822 C23.3580989,24.3548421 21.2176644,22.217997 18.6036407,22.217997 Z M26.2182027,22.8113077 C31.5855403,23.6920038 36.4375017,24.8322721 39.8501259,26.1115982 C41.8976999,26.8810485 43.4809725,27.6783097 44.4560073,28.4106769 C45.4310432,29.1430453 45.6260497,29.6621922 45.6074776,29.8568716 C45.5889055,30.0515523 45.2963946,30.5197112 44.1959978,31.0434929 C43.0956011,31.5672747 41.377681,32.0725167 39.2186744,32.4155238 C35.6156865,32.9902935 30.6522924,33.1015392 25.2153091,32.8975887 C26.5803593,31.3447832 27.4811056,29.3748067 27.4811056,27.1498918 C27.4811056,25.5460995 26.9703734,24.1045398 26.2182027,22.8113077 Z M18.6036407,24.5912396 C19.9315466,24.5912396 20.9808698,25.6388043 20.9808698,26.9644822 C20.9808698,28.2901613 19.9315466,29.3377248 18.6036407,29.3377248 C17.275736,29.3377248 16.2264116,28.2901613 16.2264116,26.9644822 C16.2264116,25.6388043 17.275736,24.5912396 18.6036407,24.5912396 Z M10.320483,29.9681174 C11.4998121,33.4074656 14.6384974,35.9058588 18.4550639,35.9753877 C15.0238676,40.1424682 11.6716037,43.7672249 8.87185901,46.0616687 C7.18644042,47.4429707 5.68210012,48.4024643 4.56313125,48.8798943 C3.44416237,49.3573243 2.90092867,49.2553484 2.74306521,49.1394677 C2.58520293,49.023587 2.31126412,48.5368872 2.40876736,47.3224538 C2.50627061,46.1080217 2.96593044,44.3559006 3.74595874,42.3163952 C5.05064864,38.918765 7.42323502,34.5662749 10.320483,29.9681174 Z" id="Shape"></path>
            </g>
        </g>
    </g>
</svg>