<?xml version="1.0" encoding="UTF-8"?>
<svg width="21px" height="15px" viewBox="0 0 21 15" version="1.1" xmlns="http://www.w3.org/2000/svg" xmlns:xlink="http://www.w3.org/1999/xlink">
    <title>youtube-168-svgrepo-com</title>
    <g id="Page-1" stroke="none" stroke-width="1" fill="none" fill-rule="evenodd">
        <g id="Лекарство-от-рака" transform="translate(-906.000000, -6641.000000)" fill="#FFFFFF" fill-rule="nonzero">
            <g id="Group-18" transform="translate(-9.000000, 6528.000000)">
                <g id="youtube-168-svgrepo-com" transform="translate(915.000000, 113.000000)">
                    <path d="M8.38785368,10.270586 L8.38785368,4.2581244 C10.47967,5.26251383 12.0997822,6.23271397 14.0158863,7.27878197 C12.4355186,8.17311424 10.47967,9.17644295 8.38785368,10.270586 M20.045548,1.26738112 C19.6847103,0.782281055 19.0697158,0.405095288 18.4149768,0.280080984 C16.4905053,-0.0928297826 4.48452276,-0.093890497 2.56109811,0.280080984 C2.0360519,0.380516713 1.568531,0.623066747 1.1669018,1.00025251 C-0.525377955,2.60300274 0.00489724669,11.1980468 0.412802298,12.5903149 C0.584330299,13.1929507 0.806063,13.6278329 1.085321,13.9131222 C1.44511295,14.2902972 1.9377362,14.5499473 2.50357281,14.6664116 C4.08812361,15.0008581 12.2514389,15.1878438 18.381508,14.7166294 C18.9462988,14.6161937 19.4462427,14.3480044 19.8405502,13.9547901 C21.4052287,12.358447 21.2985466,3.28043498 20.045548,1.26738112" id="youtube-[#168]"></path>
                </g>
            </g>
        </g>
    </g>
</svg>